<?xml version="1.0" encoding="utf-8"?>
<!-- Generator: Adobe Illustrator 16.0.0, SVG Export Plug-In . SVG Version: 6.00 Build 0)  -->
<!DOCTYPE svg PUBLIC "-//W3C//DTD SVG 1.1//EN" "http://www.w3.org/Graphics/SVG/1.1/DTD/svg11.dtd">
<svg version="1.1" id="Ebene_1" xmlns="http://www.w3.org/2000/svg" xmlns:xlink="http://www.w3.org/1999/xlink" x="0px" y="0px"
	 width="800px" height="1000px" viewBox="0 0 800 1000" enable-background="new 0 0 800 1000" xml:space="preserve">
<polyline fill="none" stroke="#000000" stroke-width="20" stroke-miterlimit="10" points="254,650 104,650 204,550 254,550 254,450 
	104,450 204,350 254,350 254,300 354,200 354,350 454,350 454,300 554,200 554,350 704,350 604,450 554,450 554,550 704,550 
	604,650 554,650 554,700 454,800 454,650 354,650 354,700 254,800 254,650 "/>
<line fill="none" stroke="#000000" stroke-width="20" stroke-miterlimit="10" x1="254" y1="650" x2="354" y2="650"/>
<line fill="none" stroke="#000000" stroke-width="20" stroke-miterlimit="10" x1="354" y1="450" x2="354" y2="550"/>
<line fill="none" stroke="#000000" stroke-width="20" stroke-miterlimit="10" x1="254" y1="550" x2="254" y2="650"/>
<line fill="none" stroke="#000000" stroke-width="20" stroke-miterlimit="10" x1="454" y1="350" x2="454" y2="450"/>
<line fill="none" stroke="#000000" stroke-width="20" stroke-miterlimit="10" x1="454" y1="450" x2="454" y2="550"/>
<line fill="none" stroke="#000000" stroke-width="20" stroke-miterlimit="10" x1="454" y1="550" x2="454" y2="650"/>
<line fill="none" stroke="#000000" stroke-width="20" stroke-miterlimit="10" x1="254" y1="450" x2="354" y2="450"/>
<line fill="none" stroke="#000000" stroke-width="20" stroke-miterlimit="10" x1="354" y1="550" x2="454" y2="550"/>
<line fill="none" stroke="#000000" stroke-width="20" stroke-miterlimit="10" x1="454" y1="450" x2="554" y2="450"/>
<line fill="none" stroke="#000000" stroke-width="20" stroke-miterlimit="10" x1="254" y1="350" x2="254" y2="450"/>
<line fill="none" stroke="#000000" stroke-width="20" stroke-miterlimit="10" x1="354" y1="350" x2="254" y2="450"/>
<line fill="none" stroke="#000000" stroke-width="20" stroke-miterlimit="10" x1="554" y1="650" x2="454" y2="650"/>
<line fill="none" stroke="#000000" stroke-width="20" stroke-miterlimit="10" x1="554" y1="350" x2="454" y2="450"/>
<line fill="none" stroke="#000000" stroke-width="20" stroke-miterlimit="10" x1="554" y1="550" x2="454" y2="650"/>
<line fill="none" stroke="#000000" stroke-width="20" stroke-miterlimit="10" x1="354" y1="550" x2="254" y2="650"/>
<line fill="none" stroke="#000000" stroke-width="20" stroke-miterlimit="10" x1="354" y1="450" x2="454" y2="450"/>
</svg>
