<?xml version="1.0" encoding="utf-8"?>
<!-- Generator: Adobe Illustrator 16.0.0, SVG Export Plug-In . SVG Version: 6.00 Build 0)  -->
<!DOCTYPE svg PUBLIC "-//W3C//DTD SVG 1.1//EN" "http://www.w3.org/Graphics/SVG/1.1/DTD/svg11.dtd">
<svg version="1.1" id="Ebene_1" xmlns="http://www.w3.org/2000/svg" xmlns:xlink="http://www.w3.org/1999/xlink" x="0px" y="0px"
	 width="600px" height="1000px" viewBox="0 0 600 1000" enable-background="new 0 0 600 1000" xml:space="preserve">
<g id="LETTERZ">
	<g id="A">
	</g>
	<g id="B">
	</g>
	<g id="C">
	</g>
	<g id="D">
	</g>
	<g id="E">
	</g>
	<g id="F">
	</g>
	<g id="G">
	</g>
	<g id="H">
	</g>
	<g id="I">
	</g>
	<g id="J">
	</g>
	<g id="K">
	</g>
	<g id="L">
	</g>
	<g id="M">
	</g>
	<g id="N">
	</g>
	<g id="O">
	</g>
	<g id="P">
	</g>
	<g id="Q">
	</g>
	<g id="R">
	</g>
	<g id="S">
	</g>
	<g id="T">
	</g>
	<g id="U">
	</g>
	<g id="V">
	</g>
	<g id="W">
	</g>
	<g id="X">
	</g>
	<g id="Y">
	</g>
	<g id="Z">
	</g>
</g>
<g id="NUMBERZ">
	<g id="_x30_">
	</g>
	<g id="_x31_">
	</g>
	<g id="_x32_">
	</g>
	<g id="_x33_">
	</g>
	<g id="_x34_">
	</g>
	<g id="_x35_">
	</g>
	<g id="_x36_">
	</g>
	<g id="_x37_">
	</g>
	<g id="_x38_">
	</g>
	<g id="_x39_">
	</g>
</g>
<polygon fill="none" stroke="#000000" stroke-width="20" stroke-miterlimit="10" points="500,400 500,300 400,200 350,200 350,150 
	250,150 250,200 200,200 100,300 100,400 200,500 200,600 100,600 100,700 200,800 250,800 250,850 350,850 350,800 400,800 
	498,701 498,600 400,500 400,400 "/>
<line fill="none" stroke="#000000" stroke-width="20" stroke-miterlimit="10" x1="400" y1="500" x2="400" y2="800"/>
<line fill="none" stroke="#000000" stroke-width="20" stroke-miterlimit="10" x1="200" y1="200" x2="200" y2="500"/>
<line fill="none" stroke="#000000" stroke-width="20" stroke-miterlimit="10" x1="200" y1="600" x2="200" y2="800"/>
<line fill="none" stroke="#000000" stroke-width="20" stroke-miterlimit="10" x1="250" y1="200" x2="250" y2="800"/>
<line fill="none" stroke="#000000" stroke-width="20" stroke-miterlimit="10" x1="400" y1="200" x2="400" y2="400"/>
<line fill="none" stroke="#000000" stroke-width="20" stroke-miterlimit="10" x1="350" y1="200" x2="350" y2="800"/>
</svg>
