<?xml version="1.0" encoding="utf-8"?>
<!-- Generator: Adobe Illustrator 16.0.0, SVG Export Plug-In . SVG Version: 6.00 Build 0)  -->
<!DOCTYPE svg PUBLIC "-//W3C//DTD SVG 1.1//EN" "http://www.w3.org/Graphics/SVG/1.1/DTD/svg11.dtd">
<svg version="1.1" xmlns="http://www.w3.org/2000/svg" xmlns:xlink="http://www.w3.org/1999/xlink" x="0px" y="0px" width="600px"
	 height="1000px" viewBox="0 0 600 1000" enable-background="new 0 0 600 1000" xml:space="preserve">
<g id="Ebene_1_Kopie">
	<line fill="none" stroke="#000000" stroke-width="20" stroke-miterlimit="10" x1="350" y1="400" x2="350.75" y2="399.25"/>
	<polygon fill="none" stroke="#000000" stroke-width="20" stroke-miterlimit="10" points="150,700 100,650 300,450 150,450 100,400 
		100,250 150,200 300,200 350,250 350,400 450,300 500,350 300,550 450,550 500,600 500,750 450,800 300,800 250,750 250,600 	"/>
</g>
<g id="Ebene_1">
	<line fill="none" stroke="#000000" stroke-width="20" stroke-miterlimit="10" x1="300" y1="450" x2="350" y2="400"/>
	<line fill="none" stroke="#000000" stroke-width="20" stroke-miterlimit="10" x1="300" y1="550" x2="250" y2="600"/>
	<line fill="none" stroke="#000000" stroke-width="20" stroke-miterlimit="10" x1="300" y1="200" x2="300" y2="450"/>
	<line fill="none" stroke="#000000" stroke-width="20" stroke-miterlimit="10" x1="150" y1="200" x2="150" y2="450"/>
	<line fill="none" stroke="#000000" stroke-width="20" stroke-miterlimit="10" x1="300" y1="550" x2="300" y2="800"/>
	<line fill="none" stroke="#000000" stroke-width="20" stroke-miterlimit="10" x1="450" y1="550" x2="450" y2="800"/>
</g>
</svg>
