<?xml version="1.0" encoding="utf-8"?>
<!-- Generator: Adobe Illustrator 14.0.0, SVG Export Plug-In  -->
<!DOCTYPE svg PUBLIC "-//W3C//DTD SVG 1.1//EN" "http://www.w3.org/Graphics/SVG/1.1/DTD/svg11.dtd" [
	<!ENTITY ns_flows "http://ns.adobe.com/Flows/1.0/">
]>
<svg height="210" width="500">
<defs>
</defs>
<g fill="none" >
	<path d="M15.486,434.962l1.849-10.816l31.153,5.323l6.107-35.739l-31.153-5.323l1.854-10.851l71.688,12.25l-1.854,10.851
		l-31.258-5.341l-6.107,35.739l31.258,5.341l-1.849,10.816L15.486,434.962z"/>
	<path d="M106.898,355.314L50.831,302.1l5.099-11.608l77.12,5.285l-4.685,10.666l-20.294-1.66l-11.426,26.013l14.939,13.854
		L106.898,355.314z M98.33,303.995l-32.733-2.663l-0.229,0.52l24.106,22.303L98.33,303.995z"/>
	<path d="M94.066,221.395l15.605-20.696c10.154-13.466,22.67-14.436,33.358-6.376c7.796,5.878,11.05,13.89,8.32,22.995l33.208,4.851
		l-7.525,9.979l-30.865-4.773c-0.149,0.198-0.278,0.368-0.427,0.567l-8.979,11.907l21.972,16.568l-6.605,8.76L94.066,221.395z
		 M137.601,223.048c6.435-8.534,5.33-14.971-1.22-19.909c-6.577-4.959-13.382-4.487-19.902,4.16l-8.294,11l21.036,15.862
		L137.601,223.048z"/>
	<path d="M160.319,142.869l43.049-36.278l6.088,7.225l-17.355,14.625l40.787,48.4l-8.366,7.049l-40.787-48.4l-17.329,14.603
		L160.319,142.869z"/>
	<path d="M277.444,72.284c-10.987,5.576-14.991,18.477-7.021,34.182c8.002,15.768,20.715,20.186,32.146,14.385
		c10.385-5.27,13.929-15.39,8.849-25.951l-16.021,8.13l-4.097-8.074l25.488-12.934l3.744,7.377
		c8.307,16.37,2.305,32.395-13.431,40.381c-17.572,8.917-35.953,2.199-46.364-18.318c-10.508-20.707-4.666-39.558,12.115-48.074
		c13.995-7.102,29.226-3.842,37.822,7.683l-10.037,5.093C294.292,69.707,286.056,67.914,277.444,72.284z"/>
	<path d="M354.033,31.856l44.337-10.658l2.208,9.185l-33.667,8.093l5.18,21.547l31.354-7.537l2.2,9.15l-31.354,7.537l5.205,21.651
		l34.082-8.193l2.208,9.185l-44.751,10.758L354.033,31.856z"/>
	<path d="M453.773,14.285l10.972-0.283l1.631,63.274l32.951-0.85l0.243,9.445l-43.922,1.132L453.773,14.285z"/>
	<path d="M537.661,88.612l14.25-71.313l23.817,4.759c20.996,4.196,30.895,20.079,26.463,42.259
		c-4.453,22.285-19.717,33.249-41.444,28.907L537.661,88.612z M562.033,83.706c16.262,3.25,26.197-4.614,29.572-21.502
		c3.36-16.818-2.818-27.757-18.418-30.875l-12.396-2.477l-10.493,52.509L562.033,83.706z"/>
	<path d="M695.97,108.634c1.937-3.351,6.302-4.52,9.684-2.566c3.352,1.936,4.551,6.32,2.615,9.671
		c-1.972,3.413-6.351,4.533-9.702,2.597C695.185,116.382,693.998,112.047,695.97,108.634z"/>
	<path d="M821.373,152.157l30.385,33.331l-6.98,6.364l-22.993-25.221l-16.377,14.93l20.815,22.833l-6.955,6.34l-20.815-22.833
		l-23.437,21.366l-7.393-8.11L821.373,152.157z"/>
	<path d="M835.365,292.834c-9.173-16.511-3.563-35.509,16.735-46.786c20.329-11.293,39.393-6.003,48.565,10.508
		c9.139,16.449,3.576,35.461-16.753,46.754C863.584,314.604,844.504,309.284,835.365,292.834z M891.914,261.418
		c-6.087-10.956-19.032-14.446-34.52-5.842s-19.363,21.439-13.277,32.395c6.07,10.925,19.032,14.446,34.52,5.842
		S897.983,272.343,891.914,261.418z"/>
	<path d="M936.092,338.404l6.816,25.007c4.436,16.271-2.457,26.762-15.371,30.283c-9.421,2.568-17.747,0.238-23.277-7.492
		l-24.158,23.293l-3.287-12.058l22.663-21.488c-0.065-0.24-0.121-0.445-0.187-0.685l-3.922-14.387l-26.549,7.237l-2.885-10.585
		L936.092,338.404z M908.142,371.822c2.812,10.311,8.578,13.376,16.491,11.219c7.947-2.167,11.737-7.837,8.89-18.285l-3.623-13.291
		l-25.418,6.929L908.142,371.822z"/>
	<path d="M958.653,456.881l-56.149,24.074l0.014,0.853l56.906,22.227l0.217,13.315l-72.719,1.188l-0.17-10.439l52.621-0.858
		l-0.011-0.675l-52.865-20.589l-0.142-8.664l52.2-22.304l-0.011-0.675l-52.657,0.86l-0.17-10.439l72.719-1.188L958.653,456.881z"/>
	<path d="M896.103,623.263c3.65,1.287,5.602,5.364,4.303,9.049c-1.287,3.65-5.376,5.636-9.027,4.349
		c-3.718-1.312-5.624-5.41-4.336-9.062C888.341,623.916,892.385,621.952,896.103,623.263z"/>
	<path d="M826.931,779.785c8.519,4.391,17.429,1.501,23.156-5.787c7.745-9.857,5.915-23.219-7.963-34.124
		c-13.99-10.993-27.316-9.496-35.018,0.306c-5.684,7.231-6.489,16.534-0.337,23.764l-6.874,8.689
		c-9.839-10.757-10.494-26.132-0.62-38.697c11.674-14.855,31.295-17.007,49.584-2.635c18.29,14.372,20.797,34.002,9.167,48.801
		c-9.501,12.091-24.175,16.052-37.941,8.396L826.931,779.785z"/>
	<path d="M729.306,802.876c14.977-11.511,34.596-8.767,48.746,9.646c14.173,18.439,11.755,38.076-3.223,49.587
		c-14.921,11.468-34.546,8.773-48.719-9.667C711.938,834.002,714.385,814.344,729.306,802.876z M768.728,854.17
		c9.938-7.638,11.479-20.958,0.682-35.006s-24.064-15.987-34.002-8.35c-9.91,7.616-11.479,20.958-0.682,35.006
		C745.522,859.87,758.818,861.787,768.728,854.17z"/>
	<path d="M670.088,842.861l28.75,66.813l-22.314,9.603c-19.672,8.465-36.84,1.005-45.782-19.775
		c-8.984-20.879-2.64-38.572,17.717-47.332L670.088,842.861z M652.803,860.738c-15.234,6.556-18.952,18.673-12.144,34.495
		c6.78,15.757,18.078,21.257,32.693,14.968l11.614-4.997l-21.17-49.196L652.803,860.738z"/>
	<path d="M591.158,947.946l-44.905,7.955l-1.647-9.303l34.099-6.041l-3.866-21.823l-31.756,5.626l-1.642-9.269l31.756-5.625
		l-3.884-21.928l-34.519,6.114l-1.648-9.303l45.325-8.029L591.158,947.946z"/>
	<path d="M435.724,915.326c-0.512,3.837-4.104,6.582-7.976,6.065c-3.837-0.513-6.618-4.108-6.105-7.945
		c0.522-3.907,4.144-6.612,7.98-6.101C433.495,907.863,436.245,911.418,435.724,915.326z"/>
	<path d="M305.872,924.302l-50.668-24.523l4.116-8.503l20.427,9.887l27.572-56.966l9.846,4.766l-27.572,56.966l20.395,9.871
		L305.872,924.302z"/>
	<path d="M203.827,865.906l6.066-37.651l-0.607-0.492l-35.585,13.717l-9.684-7.853l48.326-17.698l17.985-22.181l8.497,6.89
		l-17.985,22.181l-7.33,50.939L203.827,865.906z"/>
	<path d="M127.902,795.487l-15.929-20.451c-10.386-13.335-7.458-26.103,3.104-34.329c10.589-8.248,23.758-7.927,34.122,5.381
		l9.165,11.766l20.171-15.71l6.742,8.656L127.902,795.487z M142.471,752.588c-6.59-8.461-14.108-8.231-20.607-3.169
		s-8.422,12.187-1.745,20.759l8.466,10.87l22.44-17.479L142.471,752.588z"/>
	<path d="M68.387,708.473L48.873,667.27l8.536-4.042l14.817,31.286l20.024-9.483l-13.8-29.137l8.504-4.027l13.799,29.137
		l20.12-9.528l-15-31.672l8.536-4.043l19.696,41.588L68.387,708.473z"/>
	<path d="M59.064,549.802c-3.838,0.501-7.421-2.255-7.927-6.129c-0.5-3.839,2.251-7.457,6.09-7.958
		c3.909-0.51,7.461,2.286,7.962,6.125C65.695,545.714,62.974,549.292,59.064,549.802z"/>
</g>
</svg>
