<?xml version="1.0" encoding="UTF-8"?><svg id="Ebene_1" xmlns="http://www.w3.org/2000/svg" viewBox="0 0 885.17 89.65"><defs><style>.cls-1{fill:#1d1d1b;}</style></defs><path class="cls-1" d="M0,1.19H12.53v63.2h.81L39.08,1.32h10.4l25.74,63.03h.81V1.19h12.53V88.46h-15.98L44.79,20.62h-1.02L15.98,88.46H0V1.19Z"/><path class="cls-1" d="M204.65,35.45V1.19h13.12V35.45l31.66,53.01h-14.96l-22.8-39.67h-.94l-22.8,39.67h-14.96l31.66-53.01h.02Z"/><path class="cls-1" d="M401.94,60.89c-.97,5.68-3.13,10.68-6.5,15s-7.61,7.69-12.72,10.12c-5.11,2.43-10.81,3.64-17.09,3.64-7.53,0-14.23-1.8-20.11-5.41-5.88-3.61-10.51-8.76-13.89-15.47s-5.07-14.7-5.07-23.99,1.66-17.16,4.99-23.86c3.32-6.71,7.97-11.87,13.93-15.49,5.97-3.62,12.88-5.43,20.75-5.43,7.07,0,13.34,1.46,18.79,4.39s9.74,7.08,12.85,12.46c3.11,5.38,4.67,11.74,4.67,19.07v9.93h-34.3v-10.87h21.56c-.14-7.05-2.36-12.63-6.65-16.77-4.29-4.13-9.93-6.2-16.92-6.2-5.11,0-9.67,1.26-13.68,3.79-4.01,2.53-7.16,6.24-9.46,11.12-2.3,4.89-3.45,10.87-3.45,17.94s1.14,13,3.43,17.88c2.29,4.87,5.4,8.57,9.35,11.1s8.38,3.79,13.29,3.79c5.8,0,10.62-1.5,14.47-4.5s6.6-7.08,8.25-12.25h13.51Z"/><path class="cls-1" d="M504.41,1.19V34.22h18.75L540.89,1.19h15l-19.35,35.33c5.37,1.99,9.38,5.12,12.04,9.4s3.98,9.34,3.98,15.19c0,5.37-1.12,10.11-3.35,14.21s-5.58,7.32-10.04,9.65c-4.46,2.33-10.07,3.49-16.83,3.49h-31.11V1.19h13.18Zm0,75.98h16.53c6.51,0,11.19-1.44,14.06-4.32s4.3-6.8,4.3-11.74-1.43-8.74-4.28-11.46c-2.85-2.73-7.49-4.09-13.91-4.09h-16.7v31.62h0Z"/><path class="cls-1" d="M656.01,24.29h34.09l7.97-23.1h13.98l-31.41,87.27h-15.21L634.02,1.19h13.98s8.01,23.1,8.01,23.1Zm16.71,48.32h.68l12.87-37.24h-26.42l12.87,37.24Z"/><path class="cls-1" d="M796.61,1.19h12.53v63.2h.81L835.69,1.32h10.4l25.74,63.03h.81V1.19h12.53V88.46h-15.98l-27.78-67.84h-1.02l-27.78,67.84h-15.98V1.19h-.02Z"/></svg>